<?xml version="1.0" encoding="UTF-8" standalone="no"?>
<!-- Created with Inkscape (http://www.inkscape.org/) -->

<svg
   width="203.36008mm"
   height="154.83795mm"
   viewBox="0 0 203.36008 154.83795"
   version="1.1"
   id="svg1"
   inkscape:version="1.4 (86a8ad7, 2024-10-11)"
   sodipodi:docname="mercado_logo_pablo_exposito.svg"
   xmlns:inkscape="http://www.inkscape.org/namespaces/inkscape"
   xmlns:sodipodi="http://sodipodi.sourceforge.net/DTD/sodipodi-0.dtd"
   xmlns="http://www.w3.org/2000/svg"
   xmlns:svg="http://www.w3.org/2000/svg">
  <sodipodi:namedview
     id="namedview1"
     pagecolor="#ffffff"
     bordercolor="#000000"
     borderopacity="0.25"
     inkscape:showpageshadow="2"
     inkscape:pageopacity="0.0"
     inkscape:pagecheckerboard="0"
     inkscape:deskcolor="#d1d1d1"
     inkscape:document-units="mm"
     showguides="true"
     inkscape:zoom="1.3772587"
     inkscape:cx="271.91696"
     inkscape:cy="287.16464"
     inkscape:window-width="2400"
     inkscape:window-height="1261"
     inkscape:window-x="1341"
     inkscape:window-y="1281"
     inkscape:window-maximized="1"
     inkscape:current-layer="layer1" />
  <defs
     id="defs1">
    <rect
       x="402.24832"
       y="358.68353"
       width="68.9776"
       height="121.98144"
       id="rect2" />
    <rect
       x="294.06241"
       y="294.78848"
       width="90.03392"
       height="106.73376"
       id="rect1" />
    <rect
       x="274.45825"
       y="310.76224"
       width="110.36416"
       height="95.84256"
       id="rect7" />
  </defs>
  <g
     inkscape:label="Capa 1"
     inkscape:groupmode="layer"
     id="layer1"
     transform="translate(-4.1409602,-141.2754)">
    <path
       id="path3"
       style="fill:#5e007f;fill-opacity:1;stroke-width:0.264155"
       inkscape:transform-center-x="-0.18008612"
       inkscape:transform-center-y="21.432482"
       d="m 5.1460669,141.29594 c -0.6739785,-0.0879 -1.0051067,0.10345 -1.0051067,0.63045 0,0.1943 0.3100145,0.78018 7.0548668,4.69119 4.128708,2.39403 12.517679,5.95906 22.437907,9.80612 5.666246,2.19737 12.013571,4.21154 16.826363,5.54901 3.826473,7.13314 20.915465,39.31115 28.601872,59.93433 8.63168,23.15939 26.552381,74.20632 26.552381,74.20632 0,0 13.90079,-49.66515 22.94692,-74.21304 7.77461,-21.09754 25.64301,-50.27883 30.75678,-58.46568 5.41117,-1.0103 12.6125,-2.50692 20.75481,-4.93407 11.50195,-3.42863 24.70044,-8.83801 26.42991,-10.21074 3.09722,-2.45836 -2.88384,-1.04026 -5.76244,-0.11111 -4.43496,1.43151 -13.23717,4.61793 -22.00538,7.16339 -23.70798,6.83557 -49.35,9.13684 -73.89936,9.46144 -4.906549,-0.0384 -45.741735,-1.76614 -70.646851,-11.16883 C 17.426403,147.30626 8.0666407,141.67697 5.1460669,141.29594 Z m 73.2947511,40.98923 h 5.62498 c 0,0 4.249332,9.69927 5.232756,9.69191 0.832745,-0.006 5.835819,-9.64954 5.835819,-9.64954 l 5.470467,-0.0424 v 25.20363 l -7.957654,-0.03 c 0,0 0.114969,-9.56077 -0.824755,-9.59011 -1.014921,-0.0317 -2.286683,2.43448 -2.286683,2.43448 0,0 -1.557511,-2.46858 -2.500622,-2.37453 -1.080148,0.1077 -0.698149,9.62318 -0.698149,9.62318 l -7.896159,-0.063 z m 33.441882,18.52186 h 4.70152 l 9.65265,22.37797 -9.6542,-0.0563 c 0,0 -0.01,-4.45209 -2.67528,-4.45968 -2.70242,-0.008 -2.52802,4.46278 -2.52802,4.46278 l -9.14879,0.0532 z m 2.06603,11.80083 -1.36943,2.92489 2.76056,0.005 z" />
    <path
       id="rect4-5-7"
       style="fill:#00a400;fill-opacity:1;stroke-width:0.078234"
       d="m 201.52021,158.20768 c -4.02861,6.41161 -9.28976,14.41718 -14.75836,20.14233 -1.15129,1.13425 -11.81356,9.5603 -16.37057,11.74863 -1.11456,0.53523 -3.35715,1.4287 -3.54305,1.67815 -1.05954,1.4226 1.99369,0.52029 3.7539,-0.39967 1.02209,-0.53378 2.97234,-1.6918 3.16986,-1.69351 0.23635,-0.002 8.36461,1.75905 12.79659,4.09595 5.55105,2.92698 12.20391,11.0386 12.20391,11.0386 l 0.0786,-19.94245 c 0,0 -1.05528,-17.05401 -0.43822,-17.96014 0.80269,-1.17871 5.52178,-10.16419 5.78167,-10.70069 0.32433,-0.66953 3.90946,-6.55277 3.21822,-6.70303 -1.00719,-0.21895 -4.79386,6.94725 -5.89255,8.69583 z"
       sodipodi:nodetypes="sssccssccssss" />
    <path
       id="rect4-5-7-7"
       style="fill:#00a400;fill-opacity:1;stroke-width:0.078234"
       d="m 46.363707,220.91123 c 0.830631,1.19118 4.758623,6.74533 6.197219,9.58035 3.932971,7.75064 3.111252,21.13877 2.048272,33.6904 0,0 10.538297,-7.51776 12.215275,-8.44341 1.463727,-0.80794 8.501307,-5.28827 9.388358,-4.77347 1.535162,0.89133 8.108837,5.21628 8.541251,5.24308 0.455611,0.0284 0.644105,-0.49801 0.521978,-0.70526 -0.111539,-0.18969 -3.06201,-1.83835 -4.550626,-2.74557 -7.35439,-4.48213 -12.015749,-9.26526 -15.407329,-12.22871 -4.844234,-3.93253 -9.282073,-8.10703 -13.140085,-12.99759 -2.554988,-3.25748 -5.101886,-7.80499 -5.803625,-8.4399 -1.417032,-0.30512 -0.03162,1.79006 -0.01069,1.82008 z"
       sodipodi:nodetypes="sscscccssccss" />
    <path
       id="path6"
       style="fill:#fcbd00;fill-opacity:1;stroke-width:0.170497"
       inkscape:transform-center-x="3.6261595"
       inkscape:transform-center-y="1.3782078"
       d="m 160.92364,193.85604 c -7.55231,2.2133 -18.80415,5.69229 -20.02565,7.11274 -1.1696,1.36009 -7.36611,11.72209 -7.35201,13.10411 0.0141,1.38202 18.23041,13.02505 18.23041,13.02505 0,0 0.14684,-10.68475 0.98134,-16.0414 0.69911,-4.48759 1.61653,-13.68358 2.96973,-14.11818 1.43531,-0.46058 10.17473,-3.11737 9.97808,-3.8349 -0.11759,-0.69721 -3.88113,0.48152 -4.7819,0.75258 z"
       sodipodi:nodetypes="ssscsccs" />
    <path
       id="path7"
       style="fill:#ff0000;fill-opacity:1;stroke-width:0.167185"
       inkscape:transform-center-x="1.9191812"
       inkscape:transform-center-y="1.7924925"
       d="m 73.568176,212.85067 c -1.040698,0.0479 -6.795994,1.65048 -7.537008,1.81074 -0.780908,0.1689 -9.915674,2.52336 -9.915674,2.52336 0,0 -2.47369,0.37971 -3.42098,0.49971 -1.65245,0.20929 -4.616986,0.46108 -4.934582,0.63201 -2.491186,2.0266 10.137952,-0.28964 10.696777,-0.36427 1.357463,-0.2031 5.452907,5.42638 6.075843,6.09467 0.520966,0.5589 1.877907,1.8986 2.29805,2.60346 0.473932,0.79511 7.078121,10.84119 7.078121,10.84119 0,0 3.246536,-14.25496 3.096969,-16.16128 -0.149567,-1.90632 -2.443892,-8.06908 -3.294889,-8.4677 -0.02459,-0.0115 -0.07325,-0.0151 -0.142627,-0.0119 z"
       sodipodi:nodetypes="csccccsscsscc" />
    <path
       id="path5-6-8"
       style="fill:#ff0000;fill-opacity:1;stroke-width:0.0633108"
       inkscape:transform-center-x="-0.023761959"
       inkscape:transform-center-y="1.4526158"
       d="m 114.48002,267.91665 c 0.33683,0.24889 0.26452,0.12185 2.22338,1.49723 0.17503,1.27089 0.69635,5.00387 0.90899,5.83995 0.25488,1.00223 1.65778,8.47132 1.65778,8.47132 0,0 1.9125,-5.13371 2.12648,-5.52111 0.68393,-1.66301 2.66528,-3.90785 2.98845,-4.26072 0.61843,0.1761 2.0266,0.52322 3.04921,0.76636 0.12256,-0.0712 0.10027,-0.28727 0.0421,-0.36277 -0.0531,-0.0691 -1.03224,-0.30217 -1.53582,-0.45527 -2.49111,-0.75732 -4.45925,-2.27212 -5.57175,-2.92902 -1.5682,-0.92598 -3.43453,-1.95358 -4.79108,-2.71017 -0.30266,-0.16881 -0.53457,-0.30518 -0.88918,-0.56337 -0.36714,-0.22211 -0.31357,0.14998 -0.20856,0.22757 z"
       sodipodi:nodetypes="scscscccssscs" />
  </g>
</svg>
